<svg xmlns="http://www.w3.org/2000/svg" viewBox="0 0 414.74 104.58"><defs><style>.cls-1{fill:#00d9c6;}.cls-2{fill:#766dec;}.cls-3{fill:#4f4f4f;}</style></defs><g id="Layer_2" data-name="Layer 2"><g id="Layer_1-2" data-name="Layer 1"><path class="cls-1" d="M26.44,50.09l10.91-10.9L24.6,26.44C19.19,21,10.17,21.28,4.46,27s-6,14.73-.56,20.14L27,70.24h0C21.28,64.52,21,55.5,26.44,50.09Z"/><path class="cls-2" d="M82.2,2.41a12.48,12.48,0,0,1,8.87,3.75,12.59,12.59,0,0,1,3.75,8.55,11,11,0,0,1-3.19,8.18L70.24,44.28,53,27,74.34,5.61a11,11,0,0,1,7.86-3.2M82.2,0a13.39,13.39,0,0,0-9.56,3.9L49.54,27l20.7,20.7,23.1-23.1c5.41-5.41,5.16-14.43-.56-20.14A15,15,0,0,0,82.2,0Z"/><path class="cls-2" d="M26.44,50.09C21,55.5,21.28,64.52,27,70.24s14.74,6,20.14.55L70.24,47.7,49.54,27Z"/><path class="cls-1" d="M123.85,75.11H115.1V54.38c0-2.8-.67-4.89-2-6.29a7.06,7.06,0,0,0-5.33-2.1,7.14,7.14,0,0,0-5.37,2.06c-1.32,1.38-2,3.48-2,6.33V75.11H91.65V54.38q0-8.16,4.19-12.35a14.9,14.9,0,0,1,11-4.19q8.38,0,12.5,6.39h.14q4-6.39,12.5-6.39A14.9,14.9,0,0,1,143,42q4.19,4.19,4.19,12.35V75.11h-8.75V54.38c0-2.85-.66-5-2-6.33A7.1,7.1,0,0,0,131.13,46a7,7,0,0,0-5.3,2.1c-1.32,1.4-2,3.49-2,6.29Z"/><path class="cls-1" d="M186.26,54.38h-8.67V54q0-8-7.21-8t-7.2,8v21.1h-8.75V54c0-5.34,1.44-9.38,4.3-12.09s6.75-4.08,11.65-4.08S179.15,39.21,182,42s4.26,6.81,4.26,12.2Z"/><path class="cls-2" d="M224.19,75.11h-8.75V54.38c0-2.8-.67-4.89-2-6.29a7.91,7.91,0,0,0-10.69,0c-1.33,1.38-2,3.48-2,6.33V75.11H192V54.38q0-8.16,4.19-12.35t11-4.19q8.39,0,12.5,6.39h.15q4-6.39,12.49-6.39,6.84,0,11,4.19t4.19,12.35V75.11h-8.75V54.38c0-2.85-.66-5-2-6.33A7.13,7.13,0,0,0,231.47,46a6.94,6.94,0,0,0-5.29,2.1c-1.32,1.4-2,3.49-2,6.29Z"/><path class="cls-2" d="M292.27,60H262.49v.14a10.12,10.12,0,0,0,3.6,5.81,10.66,10.66,0,0,0,6.77,2.13q5.88,0,8.6-3.45h9.33A17.23,17.23,0,0,1,284,73a20,20,0,0,1-11.14,3.08q-8.6,0-14.08-5.4A18.45,18.45,0,0,1,253.3,57a18.45,18.45,0,0,1,5.48-13.71q5.48-5.4,14.08-5.4a19,19,0,0,1,14,5.4A18.53,18.53,0,0,1,292.27,57ZM272.86,45.77a10.9,10.9,0,0,0-6.47,1.88,9.65,9.65,0,0,0-3.68,5.26v.14H283v-.14a9.7,9.7,0,0,0-3.71-5.22A10.76,10.76,0,0,0,272.86,45.77Z"/><path class="cls-2" d="M335.49,22.91V56.65q0,8.76-5.36,14.08t-14.05,5.33q-8.59,0-14.07-5.4A18.45,18.45,0,0,1,296.53,57q0-9,5.4-14.08a17.82,17.82,0,0,1,12.54-5,15.57,15.57,0,0,1,7.2,1.61,12.36,12.36,0,0,1,4.93,4.41h.14V22.91ZM308.33,64.85a10.32,10.32,0,0,0,7.75,3.05,10.21,10.21,0,0,0,7.72-3.05,10.91,10.91,0,0,0,2.94-7.9,10.89,10.89,0,0,0-2.94-7.9A10.21,10.21,0,0,0,316.08,46a10.33,10.33,0,0,0-7.75,3.06,10.84,10.84,0,0,0-3,7.9A10.85,10.85,0,0,0,308.33,64.85Z"/><path class="cls-2" d="M351.52,74.37a5.85,5.85,0,1,1,1.69-4.11A5.6,5.6,0,0,1,351.52,74.37Z"/><path class="cls-2" d="M366,34.45a5.77,5.77,0,0,1-5.81-5.8A5.79,5.79,0,0,1,366,22.76a5.56,5.56,0,0,1,4.15,1.7,5.75,5.75,0,0,1,1.66,4.19,5.67,5.67,0,0,1-1.66,4.11A5.56,5.56,0,0,1,366,34.45Zm4.41,40.66h-8.75V38.79h8.75Z"/><path class="cls-2" d="M414.74,75.11H406V56.21q0-5.07-2.46-7.64a10.07,10.07,0,0,0-13.46,0q-2.46,2.57-2.46,7.64v18.9h-8.75V56.21q0-8.9,4.86-13.63t13.08-4.74q8.24,0,13.09,4.7t4.85,13.67Z"/><path class="cls-3" d="M211.43,87.17h1.89v13.41h-1.89Zm.92,0h7.7V89h-7.7Zm0,5.86H219v1.78h-6.68Zm0,5.76h7.7v1.79h-7.7Z"/><path class="cls-3" d="M222.54,91h1.88v9.57h-1.88Zm5.81,3.77a2.19,2.19,0,0,0-.52-1.57,2.28,2.28,0,0,0-2.9-.06,1.8,1.8,0,0,0-.51,1.37l-.19-1.84a3.32,3.32,0,0,1,1.16-1.34,2.74,2.74,0,0,1,1.58-.47,3,3,0,0,1,2.41,1,4.36,4.36,0,0,1,.86,2.88v5.81h-1.89Z"/><path class="cls-3" d="M233.51,100a2.77,2.77,0,0,1-.88-2.23,2.67,2.67,0,0,1,.81-2.13,3.52,3.52,0,0,1,2.42-.71h2.72l.13,1.51h-2.84a1.59,1.59,0,0,0-1.1.33,1.29,1.29,0,0,0-.37,1,1.27,1.27,0,0,0,.49,1.08,2.53,2.53,0,0,0,1.47.35A4.32,4.32,0,0,0,238,99a.78.78,0,0,0,.53-.72l.19,1.35a2.16,2.16,0,0,1-.61.63,2.69,2.69,0,0,1-.84.38,4.46,4.46,0,0,1-1.08.12A4,4,0,0,1,233.51,100Zm5-5.48a2,2,0,0,0-.5-1.46,1.89,1.89,0,0,0-1.43-.52,3.9,3.9,0,0,0-1.12.17,3.4,3.4,0,0,0-1,.49l-1.38-.94a3.56,3.56,0,0,1,1.44-1,5.21,5.21,0,0,1,2-.36,4.58,4.58,0,0,1,2,.42,3,3,0,0,1,1.29,1.21,4,4,0,0,1,.44,1.93v6.15H238.5Z"/><path class="cls-3" d="M243.15,87.17H245v13.41h-1.88Zm2.73,13.12a2.51,2.51,0,0,1-1-1.21l.13-2a2.39,2.39,0,0,0,.22,1,1.53,1.53,0,0,0,.65.66,2,2,0,0,0,1,.23,1.83,1.83,0,0,0,1.44-.57,2.29,2.29,0,0,0,.51-1.6V94.78a2.38,2.38,0,0,0-.51-1.63,1.81,1.81,0,0,0-1.44-.59,2.13,2.13,0,0,0-1,.23,1.46,1.46,0,0,0-.65.65,2.26,2.26,0,0,0-.22,1l-.19-1.84a3.43,3.43,0,0,1,1.13-1.3,2.84,2.84,0,0,1,1.56-.45,3.22,3.22,0,0,1,1.74.45,2.9,2.9,0,0,1,1.11,1.34,5.31,5.31,0,0,1,.37,2.11v2.08a5.24,5.24,0,0,1-.38,2.09,2.85,2.85,0,0,1-1.14,1.32,3.31,3.31,0,0,1-1.79.46A2.77,2.77,0,0,1,245.88,100.29Z"/><path class="cls-3" d="M255.31,98.11a.87.87,0,0,0,.15.54.56.56,0,0,0,.43.19h.89v1.79h-1.11A2.06,2.06,0,0,1,254,100a2.67,2.67,0,0,1-.59-1.87V87.17h1.88Z"/><path class="cls-3" d="M258.9,87.17h1.88v1.88H258.9Zm0,3.84h1.88v9.57H258.9Z"/><path class="cls-3" d="M263.64,91h1.89v9.57h-1.89Zm5.81,3.77a2.19,2.19,0,0,0-.52-1.57,2.28,2.28,0,0,0-2.9-.06,1.79,1.79,0,0,0-.5,1.37l-.2-1.84a3.4,3.4,0,0,1,1.16-1.34,2.76,2.76,0,0,1,1.58-.47,3,3,0,0,1,2.41,1,4.36,4.36,0,0,1,.86,2.88v5.81h-1.89Z"/><path class="cls-3" d="M275.44,100.29A2.85,2.85,0,0,1,274.31,99a5.2,5.2,0,0,1-.39-2.11V94.74a5.34,5.34,0,0,1,.38-2.11,2.81,2.81,0,0,1,1.1-1.33,3.14,3.14,0,0,1,1.74-.46,2.88,2.88,0,0,1,1.55.44,3.14,3.14,0,0,1,1.14,1.25l-.19,2a2.25,2.25,0,0,0-.22-1,1.51,1.51,0,0,0-.64-.66,2.14,2.14,0,0,0-1-.22,1.81,1.81,0,0,0-1.44.58,2.33,2.33,0,0,0-.52,1.63v2.08a2.26,2.26,0,0,0,.52,1.61,1.83,1.83,0,0,0,1.44.57,2.13,2.13,0,0,0,1-.23,1.62,1.62,0,0,0,.64-.68,2.33,2.33,0,0,0,.22-1.06l.13,2a2.7,2.7,0,0,1-.94,1.19,2.6,2.6,0,0,1-1.6.48A3.29,3.29,0,0,1,275.44,100.29Zm0,3.78a3,3,0,0,1-1.33-1.13l1.27-1.15a2.54,2.54,0,0,0,.89.78,2.14,2.14,0,0,0,1.07.28,2.27,2.27,0,0,0,1.67-.59,2.32,2.32,0,0,0,.59-1.69V91h1.88v9.29a4.93,4.93,0,0,1-.48,2.26,3.3,3.3,0,0,1-1.41,1.43,4.73,4.73,0,0,1-2.22.49A4.41,4.41,0,0,1,275.48,104.07Z"/><path class="cls-3" d="M287.8,87.17h9.46V89H287.8Zm3.79,1.1h1.88v12.31h-1.88Z"/><path class="cls-3" d="M298.55,87.17h1.89v1.88h-1.89Zm0,3.84h1.89v9.57h-1.89Z"/><path class="cls-3" d="M303.3,91h1.88v9.57H303.3ZM309,94.78a2.28,2.28,0,0,0-.5-1.57,1.79,1.79,0,0,0-1.41-.55,2,2,0,0,0-1.43.49,1.83,1.83,0,0,0-.5,1.37l-.2-1.84a3.48,3.48,0,0,1,1.16-1.34,2.79,2.79,0,0,1,1.58-.47,3.12,3.12,0,0,1,1.72.45,2.85,2.85,0,0,1,1.08,1.34,5.31,5.31,0,0,1,.38,2.11v5.81H309Zm5.72,0a2.19,2.19,0,0,0-.53-1.57,1.93,1.93,0,0,0-1.48-.55,1.71,1.71,0,0,0-1.35.53,2.19,2.19,0,0,0-.48,1.51l-.38-1.84a3.74,3.74,0,0,1,1.19-1.47,2.8,2.8,0,0,1,1.64-.52,3.33,3.33,0,0,1,1.77.45,2.92,2.92,0,0,1,1.12,1.34,5.31,5.31,0,0,1,.38,2.11v5.81h-1.88Z"/><path class="cls-3" d="M321.13,100.22a3.33,3.33,0,0,1-1.44-1.46,5.17,5.17,0,0,1-.49-2.33V95.35a5.6,5.6,0,0,1,.48-2.43,3.32,3.32,0,0,1,1.38-1.53,4.23,4.23,0,0,1,2.17-.52,3.45,3.45,0,0,1,2,.6,3.69,3.69,0,0,1,1.3,1.73,7.38,7.38,0,0,1,.45,2.72v.63h-6.46V95h4.67a3.29,3.29,0,0,0-.61-1.83,1.71,1.71,0,0,0-1.4-.65,2,2,0,0,0-1.65.71,3,3,0,0,0-.59,2v1.22a2.47,2.47,0,0,0,.63,1.82,2.37,2.37,0,0,0,1.78.64,3,3,0,0,0,1.13-.23,3.18,3.18,0,0,0,1-.65l1.24,1.24a5.25,5.25,0,0,1-1.6,1.06,4.51,4.51,0,0,1-1.78.37A4.82,4.82,0,0,1,321.13,100.22Z"/><path class="cls-3" d="M331.49,98.11a.87.87,0,0,0,.15.54.54.54,0,0,0,.43.19H333v1.79h-1.11a2.08,2.08,0,0,1-1.66-.67,2.72,2.72,0,0,1-.58-1.87V87.17h1.88Z"/><path class="cls-3" d="M334.07,91H336l2.95,8.32-1.05,2Zm8.47,0-4.07,11.81a2.79,2.79,0,0,1-.59,1,2,2,0,0,1-.88.55,4.34,4.34,0,0,1-1.29.17h-.38v-1.81h.38a1.44,1.44,0,0,0,.83-.21,1.72,1.72,0,0,0,.54-.73L340.62,91Z"/><path class="cls-3" d="M347.62,87.17h9.46V89h-9.46Zm3.79,1.1h1.88v12.31h-1.88Z"/><path class="cls-3" d="M358.37,87.17h1.89v13.41h-1.89Zm5.82,7.61a2.19,2.19,0,0,0-.53-1.57,1.92,1.92,0,0,0-1.47-.55,2,2,0,0,0-1.43.48,1.76,1.76,0,0,0-.5,1.35l-.2-1.84a3.41,3.41,0,0,1,1.16-1.32,2.86,2.86,0,0,1,1.58-.46,3,3,0,0,1,2.42,1,4.41,4.41,0,0,1,.85,2.88v5.81h-1.88Z"/><path class="cls-3" d="M370.58,100.22a3.31,3.31,0,0,1-1.43-1.46,5,5,0,0,1-.5-2.33V95.35a5.6,5.6,0,0,1,.48-2.43,3.32,3.32,0,0,1,1.38-1.53,4.25,4.25,0,0,1,2.17-.52,3.45,3.45,0,0,1,2.05.6A3.69,3.69,0,0,1,376,93.2a7.38,7.38,0,0,1,.45,2.72v.63H370V95h4.67a3.29,3.29,0,0,0-.61-1.83,1.7,1.7,0,0,0-1.4-.65,2,2,0,0,0-1.65.71,3,3,0,0,0-.59,2v1.22a2.47,2.47,0,0,0,.63,1.82,2.37,2.37,0,0,0,1.78.64A3.09,3.09,0,0,0,374,98.7a3.14,3.14,0,0,0,1-.65l1.24,1.24a5.25,5.25,0,0,1-1.6,1.06,4.51,4.51,0,0,1-1.78.37A4.85,4.85,0,0,1,370.58,100.22Z"/><path class="cls-3" d="M379.06,91h1.88v9.57h-1.88Zm4.64,1.8a2.35,2.35,0,0,0-.88-.15,1.72,1.72,0,0,0-1.88,1.86l-.19-1.84a3.43,3.43,0,0,1,1.14-1.34,2.69,2.69,0,0,1,1.55-.47,3.46,3.46,0,0,1,1.19.19,2.59,2.59,0,0,1,.92.55l-1.22,1.66A1.71,1.71,0,0,0,383.7,92.81Z"/><path class="cls-3" d="M387.54,100a2.74,2.74,0,0,1-.88-2.23,2.7,2.7,0,0,1,.8-2.13,3.56,3.56,0,0,1,2.43-.71h2.72l.13,1.51H389.9a1.59,1.59,0,0,0-1.1.33,1.29,1.29,0,0,0-.37,1,1.27,1.27,0,0,0,.49,1.08,2.53,2.53,0,0,0,1.47.35A4.32,4.32,0,0,0,392,99a.78.78,0,0,0,.53-.72l.19,1.35a2.16,2.16,0,0,1-.61.63,2.69,2.69,0,0,1-.84.38,4.46,4.46,0,0,1-1.08.12A4,4,0,0,1,387.54,100Zm5-5.48a2,2,0,0,0-.5-1.46,1.89,1.89,0,0,0-1.43-.52,3.9,3.9,0,0,0-1.12.17,3.28,3.28,0,0,0-1,.49l-1.38-.94a3.56,3.56,0,0,1,1.44-1,5.21,5.21,0,0,1,2-.36,4.58,4.58,0,0,1,2,.42,3,3,0,0,1,1.29,1.21,4,4,0,0,1,.44,1.93v6.15h-1.79Z"/><path class="cls-3" d="M397.18,91h1.88v13.47h-1.88Zm2.73,9.28a2.51,2.51,0,0,1-1-1.21l.13-2a2.39,2.39,0,0,0,.22,1,1.51,1.51,0,0,0,.64.66,2,2,0,0,0,1,.23,1.84,1.84,0,0,0,1.45-.57,2.29,2.29,0,0,0,.51-1.6V94.78a2.38,2.38,0,0,0-.51-1.63,1.82,1.82,0,0,0-1.45-.59,2.13,2.13,0,0,0-1,.23,1.44,1.44,0,0,0-.64.65,2.26,2.26,0,0,0-.22,1l-.19-1.84a3.43,3.43,0,0,1,1.13-1.3,2.84,2.84,0,0,1,1.56-.45,3.22,3.22,0,0,1,1.74.45,2.88,2.88,0,0,1,1.1,1.34,5.14,5.14,0,0,1,.38,2.11v2.08a5.06,5.06,0,0,1-.39,2.09,2.77,2.77,0,0,1-1.13,1.32,3.34,3.34,0,0,1-1.79.46A2.77,2.77,0,0,1,399.91,100.29Z"/><path class="cls-3" d="M406.07,91H408l2.95,8.32-1.05,2Zm8.48,0-4.08,11.81a2.65,2.65,0,0,1-.58,1,2,2,0,0,1-.88.55,4.34,4.34,0,0,1-1.29.17h-.38v-1.81h.38a1.46,1.46,0,0,0,.83-.21,1.72,1.72,0,0,0,.54-.73L412.63,91Z"/></g></g></svg>